<mxfile host="app.diagrams.net" modified="2022-01-13T13:41:58.069Z" agent="5.0 (Windows NT 10.0; Win64; x64) AppleWebKit/537.36 (KHTML, like Gecko) Chrome/97.0.4692.71 Safari/537.36 Edg/97.0.1072.55" etag="weZ-Kn-_80p-8MnOa90-" version="16.2.6" type="github">
  <diagram id="3-JC5r7HcJzWq7rusLK6" name="Page-1">
    <mxGraphModel dx="1422" dy="762" grid="1" gridSize="10" guides="1" tooltips="1" connect="1" arrows="1" fold="1" page="1" pageScale="1" pageWidth="1169" pageHeight="827" math="0" shadow="0">
      <root>
        <mxCell id="0" />
        <mxCell id="1" parent="0" />
        <mxCell id="qWXWlK8COrikDWp0F3PN-1" value="" style="endArrow=none;html=1;rounded=1;strokeWidth=2;" edge="1" parent="1">
          <mxGeometry width="50" height="50" relative="1" as="geometry">
            <mxPoint x="30" y="480" as="sourcePoint" />
            <mxPoint x="150" y="480" as="targetPoint" />
          </mxGeometry>
        </mxCell>
        <mxCell id="qWXWlK8COrikDWp0F3PN-3" value="" style="endArrow=none;html=1;rounded=1;strokeWidth=2;" edge="1" parent="1">
          <mxGeometry width="50" height="50" relative="1" as="geometry">
            <mxPoint x="30" y="480" as="sourcePoint" />
            <mxPoint x="47.5" y="320" as="targetPoint" />
            <Array as="points">
              <mxPoint x="60" y="370" />
            </Array>
          </mxGeometry>
        </mxCell>
        <mxCell id="qWXWlK8COrikDWp0F3PN-2" value="" style="endArrow=none;html=1;rounded=1;strokeWidth=2;" edge="1" parent="1">
          <mxGeometry width="50" height="50" relative="1" as="geometry">
            <mxPoint x="47.5" y="320" as="sourcePoint" />
            <mxPoint x="130" y="320" as="targetPoint" />
            <Array as="points">
              <mxPoint x="100" y="320" />
            </Array>
          </mxGeometry>
        </mxCell>
        <mxCell id="qWXWlK8COrikDWp0F3PN-17" value="" style="endArrow=none;html=1;rounded=1;strokeWidth=2;" edge="1" parent="1">
          <mxGeometry width="50" height="50" relative="1" as="geometry">
            <mxPoint x="150" y="480" as="sourcePoint" />
            <mxPoint x="130" y="320" as="targetPoint" />
            <Array as="points">
              <mxPoint x="120" y="370" />
            </Array>
          </mxGeometry>
        </mxCell>
        <mxCell id="qWXWlK8COrikDWp0F3PN-8" value="" style="endArrow=none;html=1;rounded=0;strokeWidth=2;" edge="1" parent="1">
          <mxGeometry width="50" height="50" relative="1" as="geometry">
            <mxPoint x="149" y="474" as="sourcePoint" />
            <mxPoint x="210" y="474" as="targetPoint" />
          </mxGeometry>
        </mxCell>
        <mxCell id="qWXWlK8COrikDWp0F3PN-9" value="" style="endArrow=none;html=1;rounded=1;strokeWidth=2;" edge="1" parent="1">
          <mxGeometry width="50" height="50" relative="1" as="geometry">
            <mxPoint x="132" y="415" as="sourcePoint" />
            <mxPoint x="131.25" y="354" as="targetPoint" />
            <Array as="points">
              <mxPoint x="136.875" y="391.5" />
            </Array>
          </mxGeometry>
        </mxCell>
        <mxCell id="qWXWlK8COrikDWp0F3PN-10" value="" style="group" vertex="1" connectable="0" parent="1">
          <mxGeometry x="165" y="354" width="28.125000000000004" height="37.5" as="geometry" />
        </mxCell>
        <mxCell id="qWXWlK8COrikDWp0F3PN-11" value="" style="endArrow=none;html=1;rounded=0;strokeWidth=2;" edge="1" parent="qWXWlK8COrikDWp0F3PN-10">
          <mxGeometry width="50" height="50" relative="1" as="geometry">
            <mxPoint x="-33.75" as="sourcePoint" />
            <mxPoint x="33.75" as="targetPoint" />
            <Array as="points">
              <mxPoint />
            </Array>
          </mxGeometry>
        </mxCell>
        <mxCell id="qWXWlK8COrikDWp0F3PN-12" value="" style="endArrow=none;html=1;rounded=1;strokeWidth=2;" edge="1" parent="qWXWlK8COrikDWp0F3PN-10">
          <mxGeometry width="50" height="50" relative="1" as="geometry">
            <mxPoint x="45" y="120" as="sourcePoint" />
            <mxPoint x="33.75" as="targetPoint" />
            <Array as="points">
              <mxPoint x="28.125000000000004" y="37.5" />
            </Array>
          </mxGeometry>
        </mxCell>
        <mxCell id="qWXWlK8COrikDWp0F3PN-16" value="" style="shape=cylinder3;whiteSpace=wrap;html=1;boundedLbl=1;backgroundOutline=1;size=0;strokeWidth=2;fillColor=default;gradientColor=none;" vertex="1" parent="1">
          <mxGeometry x="199" y="275" width="20" height="210" as="geometry" />
        </mxCell>
        <mxCell id="qWXWlK8COrikDWp0F3PN-28" value="" style="group" vertex="1" connectable="0" parent="1">
          <mxGeometry x="55" y="277" width="59" height="12" as="geometry" />
        </mxCell>
        <mxCell id="qWXWlK8COrikDWp0F3PN-19" value="" style="curved=1;endArrow=none;html=1;rounded=1;strokeWidth=2;endFill=0;" edge="1" parent="qWXWlK8COrikDWp0F3PN-28">
          <mxGeometry width="50" height="50" relative="1" as="geometry">
            <mxPoint x="10" y="30" as="sourcePoint" />
            <mxPoint x="10" y="-20" as="targetPoint" />
            <Array as="points">
              <mxPoint x="20" y="10" />
              <mxPoint />
            </Array>
          </mxGeometry>
        </mxCell>
        <mxCell id="qWXWlK8COrikDWp0F3PN-20" value="" style="curved=1;endArrow=none;html=1;rounded=1;strokeWidth=2;endFill=0;" edge="1" parent="qWXWlK8COrikDWp0F3PN-28">
          <mxGeometry width="50" height="50" relative="1" as="geometry">
            <mxPoint x="32" y="31" as="sourcePoint" />
            <mxPoint x="32" y="-19" as="targetPoint" />
            <Array as="points">
              <mxPoint x="42" y="11" />
              <mxPoint x="22" y="1" />
            </Array>
          </mxGeometry>
        </mxCell>
        <mxCell id="qWXWlK8COrikDWp0F3PN-21" value="" style="curved=1;endArrow=none;html=1;rounded=1;strokeWidth=2;endFill=0;" edge="1" parent="qWXWlK8COrikDWp0F3PN-28">
          <mxGeometry width="50" height="50" relative="1" as="geometry">
            <mxPoint x="49" y="32" as="sourcePoint" />
            <mxPoint x="49" y="-18" as="targetPoint" />
            <Array as="points">
              <mxPoint x="59" y="12" />
              <mxPoint x="39" y="2" />
            </Array>
          </mxGeometry>
        </mxCell>
        <mxCell id="qWXWlK8COrikDWp0F3PN-29" value="" style="group" vertex="1" connectable="0" parent="1">
          <mxGeometry x="148" y="330" width="29" height="6" as="geometry" />
        </mxCell>
        <mxCell id="qWXWlK8COrikDWp0F3PN-30" value="" style="curved=1;endArrow=none;html=1;rounded=1;strokeWidth=2;endFill=0;" edge="1" parent="qWXWlK8COrikDWp0F3PN-29">
          <mxGeometry width="50" height="50" relative="1" as="geometry">
            <mxPoint x="4.915254237288136" y="15" as="sourcePoint" />
            <mxPoint x="4.915254237288136" y="-10" as="targetPoint" />
            <Array as="points">
              <mxPoint x="9.830508474576272" y="5" />
              <mxPoint />
            </Array>
          </mxGeometry>
        </mxCell>
        <mxCell id="qWXWlK8COrikDWp0F3PN-31" value="" style="curved=1;endArrow=none;html=1;rounded=1;strokeWidth=2;endFill=0;" edge="1" parent="qWXWlK8COrikDWp0F3PN-29">
          <mxGeometry width="50" height="50" relative="1" as="geometry">
            <mxPoint x="15.728813559322031" y="15.499999999999998" as="sourcePoint" />
            <mxPoint x="15.728813559322031" y="-9.5" as="targetPoint" />
            <Array as="points">
              <mxPoint x="20.64406779661017" y="5.5" />
              <mxPoint x="10.813559322033896" y="0.5" />
            </Array>
          </mxGeometry>
        </mxCell>
        <mxCell id="qWXWlK8COrikDWp0F3PN-32" value="" style="curved=1;endArrow=none;html=1;rounded=1;strokeWidth=2;endFill=0;" edge="1" parent="qWXWlK8COrikDWp0F3PN-29">
          <mxGeometry width="50" height="50" relative="1" as="geometry">
            <mxPoint x="24.08474576271186" y="16" as="sourcePoint" />
            <mxPoint x="24.08474576271186" y="-9" as="targetPoint" />
            <Array as="points">
              <mxPoint x="28.999999999999996" y="6" />
              <mxPoint x="19.169491525423727" y="1" />
            </Array>
          </mxGeometry>
        </mxCell>
        <mxCell id="qWXWlK8COrikDWp0F3PN-65" value="" style="group" vertex="1" connectable="0" parent="1">
          <mxGeometry x="360" y="187.41" width="160" height="310" as="geometry" />
        </mxCell>
        <mxCell id="qWXWlK8COrikDWp0F3PN-33" value="" style="endArrow=none;html=1;rounded=0;strokeWidth=2;" edge="1" parent="qWXWlK8COrikDWp0F3PN-65">
          <mxGeometry width="50" height="50" relative="1" as="geometry">
            <mxPoint x="140" y="310" as="sourcePoint" />
            <mxPoint x="140" y="310" as="targetPoint" />
            <Array as="points">
              <mxPoint x="80" y="258.33333333333337" />
              <mxPoint x="20" y="310" />
              <mxPoint x="60" y="155" />
              <mxPoint x="100" y="155" />
            </Array>
          </mxGeometry>
        </mxCell>
        <mxCell id="qWXWlK8COrikDWp0F3PN-36" value="" style="endArrow=none;html=1;rounded=0;strokeWidth=2;" edge="1" parent="qWXWlK8COrikDWp0F3PN-65">
          <mxGeometry width="50" height="50" relative="1" as="geometry">
            <mxPoint x="80" y="258.33333333333337" as="sourcePoint" />
            <mxPoint x="118" y="226.04166666666669" as="targetPoint" />
          </mxGeometry>
        </mxCell>
        <mxCell id="qWXWlK8COrikDWp0F3PN-37" value="" style="endArrow=none;html=1;rounded=0;strokeWidth=2;" edge="1" parent="qWXWlK8COrikDWp0F3PN-65">
          <mxGeometry width="50" height="50" relative="1" as="geometry">
            <mxPoint x="80" y="258.33333333333337" as="sourcePoint" />
            <mxPoint x="42" y="226.04166666666669" as="targetPoint" />
          </mxGeometry>
        </mxCell>
        <mxCell id="qWXWlK8COrikDWp0F3PN-38" value="" style="endArrow=none;html=1;rounded=0;strokeWidth=2;" edge="1" parent="qWXWlK8COrikDWp0F3PN-65">
          <mxGeometry width="50" height="50" relative="1" as="geometry">
            <mxPoint x="42" y="226.04166666666669" as="sourcePoint" />
            <mxPoint x="118" y="226.04166666666669" as="targetPoint" />
          </mxGeometry>
        </mxCell>
        <mxCell id="qWXWlK8COrikDWp0F3PN-39" value="" style="endArrow=none;html=1;rounded=0;strokeWidth=2;" edge="1" parent="qWXWlK8COrikDWp0F3PN-65">
          <mxGeometry width="50" height="50" relative="1" as="geometry">
            <mxPoint x="42" y="226.04166666666669" as="sourcePoint" />
            <mxPoint x="109" y="193.75" as="targetPoint" />
          </mxGeometry>
        </mxCell>
        <mxCell id="qWXWlK8COrikDWp0F3PN-40" value="" style="endArrow=none;html=1;rounded=0;strokeWidth=2;" edge="1" parent="qWXWlK8COrikDWp0F3PN-65">
          <mxGeometry width="50" height="50" relative="1" as="geometry">
            <mxPoint x="118" y="226.04166666666669" as="sourcePoint" />
            <mxPoint x="50" y="193.75" as="targetPoint" />
          </mxGeometry>
        </mxCell>
        <mxCell id="qWXWlK8COrikDWp0F3PN-41" value="" style="endArrow=none;html=1;rounded=0;strokeWidth=2;" edge="1" parent="qWXWlK8COrikDWp0F3PN-65">
          <mxGeometry width="50" height="50" relative="1" as="geometry">
            <mxPoint x="51" y="195.04166666666669" as="sourcePoint" />
            <mxPoint x="103" y="167.91666666666669" as="targetPoint" />
          </mxGeometry>
        </mxCell>
        <mxCell id="qWXWlK8COrikDWp0F3PN-42" value="" style="endArrow=none;html=1;rounded=0;strokeWidth=2;" edge="1" parent="qWXWlK8COrikDWp0F3PN-65">
          <mxGeometry width="50" height="50" relative="1" as="geometry">
            <mxPoint x="110" y="193.75" as="sourcePoint" />
            <mxPoint x="57" y="169.20833333333334" as="targetPoint" />
          </mxGeometry>
        </mxCell>
        <mxCell id="qWXWlK8COrikDWp0F3PN-43" value="" style="endArrow=none;html=1;rounded=0;strokeWidth=2;" edge="1" parent="qWXWlK8COrikDWp0F3PN-65">
          <mxGeometry width="50" height="50" relative="1" as="geometry">
            <mxPoint x="100" y="156.29166666666669" as="sourcePoint" />
            <mxPoint x="57" y="169.20833333333334" as="targetPoint" />
          </mxGeometry>
        </mxCell>
        <mxCell id="qWXWlK8COrikDWp0F3PN-44" value="" style="endArrow=none;html=1;rounded=0;strokeWidth=2;" edge="1" parent="qWXWlK8COrikDWp0F3PN-65">
          <mxGeometry width="50" height="50" relative="1" as="geometry">
            <mxPoint x="60" y="156.29166666666669" as="sourcePoint" />
            <mxPoint x="102" y="167.91666666666669" as="targetPoint" />
          </mxGeometry>
        </mxCell>
        <mxCell id="qWXWlK8COrikDWp0F3PN-45" value="" style="endArrow=none;html=1;rounded=0;strokeWidth=2;" edge="1" parent="qWXWlK8COrikDWp0F3PN-65">
          <mxGeometry width="50" height="50" relative="1" as="geometry">
            <mxPoint x="100" y="129.16666666666669" as="sourcePoint" />
            <mxPoint x="100" y="129.16666666666669" as="targetPoint" />
            <Array as="points">
              <mxPoint x="60" y="129.16666666666669" />
              <mxPoint y="155" />
              <mxPoint x="60" y="155" />
              <mxPoint x="100" y="155" />
              <mxPoint x="160" y="155" />
            </Array>
          </mxGeometry>
        </mxCell>
        <mxCell id="qWXWlK8COrikDWp0F3PN-48" value="" style="endArrow=none;html=1;rounded=0;strokeWidth=2;" edge="1" parent="qWXWlK8COrikDWp0F3PN-65">
          <mxGeometry width="50" height="50" relative="1" as="geometry">
            <mxPoint x="60" y="155" as="sourcePoint" />
            <mxPoint x="60" y="129.16666666666669" as="targetPoint" />
          </mxGeometry>
        </mxCell>
        <mxCell id="qWXWlK8COrikDWp0F3PN-49" value="" style="endArrow=none;html=1;rounded=0;strokeWidth=2;" edge="1" parent="qWXWlK8COrikDWp0F3PN-65">
          <mxGeometry width="50" height="50" relative="1" as="geometry">
            <mxPoint x="100" y="155" as="sourcePoint" />
            <mxPoint x="100" y="129.16666666666669" as="targetPoint" />
          </mxGeometry>
        </mxCell>
        <mxCell id="qWXWlK8COrikDWp0F3PN-50" value="" style="endArrow=none;html=1;rounded=0;strokeWidth=2;" edge="1" parent="qWXWlK8COrikDWp0F3PN-65">
          <mxGeometry width="50" height="50" relative="1" as="geometry">
            <mxPoint x="60" y="130.45833333333334" as="sourcePoint" />
            <mxPoint x="65" y="90.41666666666667" as="targetPoint" />
          </mxGeometry>
        </mxCell>
        <mxCell id="qWXWlK8COrikDWp0F3PN-51" value="" style="endArrow=none;html=1;rounded=0;strokeWidth=2;" edge="1" parent="qWXWlK8COrikDWp0F3PN-65">
          <mxGeometry width="50" height="50" relative="1" as="geometry">
            <mxPoint x="100" y="129.16666666666669" as="sourcePoint" />
            <mxPoint x="95" y="90.41666666666667" as="targetPoint" />
          </mxGeometry>
        </mxCell>
        <mxCell id="qWXWlK8COrikDWp0F3PN-52" value="" style="endArrow=none;html=1;rounded=0;strokeWidth=2;" edge="1" parent="qWXWlK8COrikDWp0F3PN-65">
          <mxGeometry width="50" height="50" relative="1" as="geometry">
            <mxPoint x="100" y="69.75" as="sourcePoint" />
            <mxPoint x="100" y="69.75" as="targetPoint" />
            <Array as="points">
              <mxPoint x="60" y="69.75" />
              <mxPoint x="20" y="89.125" />
              <mxPoint x="60" y="89.125" />
              <mxPoint x="100" y="89.125" />
              <mxPoint x="140" y="89.125" />
            </Array>
          </mxGeometry>
        </mxCell>
        <mxCell id="qWXWlK8COrikDWp0F3PN-53" value="" style="endArrow=none;html=1;rounded=0;strokeWidth=2;" edge="1" parent="qWXWlK8COrikDWp0F3PN-65">
          <mxGeometry width="50" height="50" relative="1" as="geometry">
            <mxPoint x="92" y="71.04166666666667" as="sourcePoint" />
            <mxPoint x="90" y="38.75" as="targetPoint" />
          </mxGeometry>
        </mxCell>
        <mxCell id="qWXWlK8COrikDWp0F3PN-54" value="" style="endArrow=none;html=1;rounded=0;strokeWidth=2;" edge="1" parent="qWXWlK8COrikDWp0F3PN-65">
          <mxGeometry width="50" height="50" relative="1" as="geometry">
            <mxPoint x="68" y="69.75" as="sourcePoint" />
            <mxPoint x="70" y="38.75" as="targetPoint" />
          </mxGeometry>
        </mxCell>
        <mxCell id="qWXWlK8COrikDWp0F3PN-55" value="" style="endArrow=none;html=1;rounded=0;strokeWidth=2;" edge="1" parent="qWXWlK8COrikDWp0F3PN-65">
          <mxGeometry width="50" height="50" relative="1" as="geometry">
            <mxPoint x="99" y="25.833333333333336" as="sourcePoint" />
            <mxPoint x="98" y="25.833333333333336" as="targetPoint" />
            <Array as="points">
              <mxPoint x="59" y="25.833333333333336" />
              <mxPoint x="40" y="40.04166666666667" />
              <mxPoint x="59" y="40.04166666666667" />
              <mxPoint x="99" y="40.04166666666667" />
              <mxPoint x="120" y="40.04166666666667" />
            </Array>
          </mxGeometry>
        </mxCell>
        <mxCell id="qWXWlK8COrikDWp0F3PN-56" value="" style="endArrow=none;html=1;rounded=0;strokeWidth=2;" edge="1" parent="qWXWlK8COrikDWp0F3PN-65">
          <mxGeometry width="50" height="50" relative="1" as="geometry">
            <mxPoint x="65" y="89.125" as="sourcePoint" />
            <mxPoint x="68" y="68.45833333333334" as="targetPoint" />
          </mxGeometry>
        </mxCell>
        <mxCell id="qWXWlK8COrikDWp0F3PN-57" value="" style="endArrow=none;html=1;rounded=0;strokeWidth=2;" edge="1" parent="qWXWlK8COrikDWp0F3PN-65">
          <mxGeometry width="50" height="50" relative="1" as="geometry">
            <mxPoint x="94" y="89.125" as="sourcePoint" />
            <mxPoint x="92" y="69.75" as="targetPoint" />
          </mxGeometry>
        </mxCell>
        <mxCell id="qWXWlK8COrikDWp0F3PN-58" value="" style="endArrow=none;html=1;rounded=0;strokeWidth=2;" edge="1" parent="qWXWlK8COrikDWp0F3PN-65">
          <mxGeometry width="50" height="50" relative="1" as="geometry">
            <mxPoint x="74" y="25.833333333333336" as="sourcePoint" />
            <mxPoint x="77" as="targetPoint" />
          </mxGeometry>
        </mxCell>
        <mxCell id="qWXWlK8COrikDWp0F3PN-59" value="" style="endArrow=none;html=1;rounded=0;strokeWidth=2;" edge="1" parent="qWXWlK8COrikDWp0F3PN-65">
          <mxGeometry width="50" height="50" relative="1" as="geometry">
            <mxPoint x="86" y="25.833333333333336" as="sourcePoint" />
            <mxPoint x="83" as="targetPoint" />
          </mxGeometry>
        </mxCell>
        <mxCell id="qWXWlK8COrikDWp0F3PN-62" value="" style="triangle;whiteSpace=wrap;html=1;strokeWidth=2;fillColor=default;gradientColor=none;rotation=90;" vertex="1" parent="qWXWlK8COrikDWp0F3PN-65">
          <mxGeometry x="75" y="-27.413333333333334" width="10" height="64.58333333333334" as="geometry" />
        </mxCell>
        <mxCell id="qWXWlK8COrikDWp0F3PN-63" value="" style="endArrow=none;html=1;rounded=0;strokeWidth=2;" edge="1" parent="qWXWlK8COrikDWp0F3PN-65">
          <mxGeometry width="50" height="50" relative="1" as="geometry">
            <mxPoint x="70" y="41.333333333333336" as="sourcePoint" />
            <mxPoint x="74" y="25.833333333333336" as="targetPoint" />
          </mxGeometry>
        </mxCell>
        <mxCell id="qWXWlK8COrikDWp0F3PN-64" value="" style="endArrow=none;html=1;rounded=0;strokeWidth=2;" edge="1" parent="qWXWlK8COrikDWp0F3PN-65">
          <mxGeometry width="50" height="50" relative="1" as="geometry">
            <mxPoint x="90" y="40.04166666666667" as="sourcePoint" />
            <mxPoint x="86" y="24.541666666666668" as="targetPoint" />
          </mxGeometry>
        </mxCell>
        <mxCell id="qWXWlK8COrikDWp0F3PN-121" value="" style="group" vertex="1" connectable="0" parent="qWXWlK8COrikDWp0F3PN-65">
          <mxGeometry x="125" y="151.99999999999997" width="4" height="6" as="geometry" />
        </mxCell>
        <mxCell id="qWXWlK8COrikDWp0F3PN-122" value="" style="ellipse;whiteSpace=wrap;html=1;strokeWidth=1;fillColor=#000000;gradientColor=none;" vertex="1" parent="qWXWlK8COrikDWp0F3PN-121">
          <mxGeometry width="1.3333333333333335" height="6" as="geometry" />
        </mxCell>
        <mxCell id="qWXWlK8COrikDWp0F3PN-123" value="" style="ellipse;whiteSpace=wrap;html=1;strokeWidth=1;fillColor=#000000;gradientColor=none;" vertex="1" parent="qWXWlK8COrikDWp0F3PN-121">
          <mxGeometry x="1.3333333333333335" width="1.3333333333333335" height="6" as="geometry" />
        </mxCell>
        <mxCell id="qWXWlK8COrikDWp0F3PN-124" value="" style="ellipse;whiteSpace=wrap;html=1;strokeWidth=1;fillColor=#000000;gradientColor=none;" vertex="1" parent="qWXWlK8COrikDWp0F3PN-121">
          <mxGeometry x="2.666666666666667" width="1.3333333333333335" height="6" as="geometry" />
        </mxCell>
        <mxCell id="qWXWlK8COrikDWp0F3PN-134" value="" style="group" vertex="1" connectable="0" parent="qWXWlK8COrikDWp0F3PN-65">
          <mxGeometry x="48" y="37.16999999999999" width="4" height="6" as="geometry" />
        </mxCell>
        <mxCell id="qWXWlK8COrikDWp0F3PN-135" value="" style="ellipse;whiteSpace=wrap;html=1;strokeWidth=1;fillColor=#000000;gradientColor=none;" vertex="1" parent="qWXWlK8COrikDWp0F3PN-134">
          <mxGeometry width="1.3333333333333335" height="6" as="geometry" />
        </mxCell>
        <mxCell id="qWXWlK8COrikDWp0F3PN-136" value="" style="ellipse;whiteSpace=wrap;html=1;strokeWidth=1;fillColor=#000000;gradientColor=none;" vertex="1" parent="qWXWlK8COrikDWp0F3PN-134">
          <mxGeometry x="1.3333333333333335" width="1.3333333333333335" height="6" as="geometry" />
        </mxCell>
        <mxCell id="qWXWlK8COrikDWp0F3PN-137" value="" style="ellipse;whiteSpace=wrap;html=1;strokeWidth=1;fillColor=#000000;gradientColor=none;" vertex="1" parent="qWXWlK8COrikDWp0F3PN-134">
          <mxGeometry x="2.666666666666667" width="1.3333333333333335" height="6" as="geometry" />
        </mxCell>
        <mxCell id="qWXWlK8COrikDWp0F3PN-159" value="" style="group" vertex="1" connectable="0" parent="qWXWlK8COrikDWp0F3PN-65">
          <mxGeometry x="61" y="2" width="4" height="6" as="geometry" />
        </mxCell>
        <mxCell id="qWXWlK8COrikDWp0F3PN-160" value="" style="ellipse;whiteSpace=wrap;html=1;strokeWidth=1;fillColor=#000000;gradientColor=none;" vertex="1" parent="qWXWlK8COrikDWp0F3PN-159">
          <mxGeometry width="1.3333333333333335" height="6" as="geometry" />
        </mxCell>
        <mxCell id="qWXWlK8COrikDWp0F3PN-161" value="" style="ellipse;whiteSpace=wrap;html=1;strokeWidth=1;fillColor=#000000;gradientColor=none;" vertex="1" parent="qWXWlK8COrikDWp0F3PN-159">
          <mxGeometry x="1.3333333333333335" width="1.3333333333333335" height="6" as="geometry" />
        </mxCell>
        <mxCell id="qWXWlK8COrikDWp0F3PN-162" value="" style="ellipse;whiteSpace=wrap;html=1;strokeWidth=1;fillColor=#000000;gradientColor=none;" vertex="1" parent="qWXWlK8COrikDWp0F3PN-159">
          <mxGeometry x="2.666666666666667" width="1.3333333333333335" height="6" as="geometry" />
        </mxCell>
        <mxCell id="qWXWlK8COrikDWp0F3PN-164" value="" style="group" vertex="1" connectable="0" parent="qWXWlK8COrikDWp0F3PN-65">
          <mxGeometry x="95" y="2" width="4" height="6" as="geometry" />
        </mxCell>
        <mxCell id="qWXWlK8COrikDWp0F3PN-165" value="" style="ellipse;whiteSpace=wrap;html=1;strokeWidth=1;fillColor=#000000;gradientColor=none;" vertex="1" parent="qWXWlK8COrikDWp0F3PN-164">
          <mxGeometry width="1.3333333333333335" height="6" as="geometry" />
        </mxCell>
        <mxCell id="qWXWlK8COrikDWp0F3PN-166" value="" style="ellipse;whiteSpace=wrap;html=1;strokeWidth=1;fillColor=#000000;gradientColor=none;" vertex="1" parent="qWXWlK8COrikDWp0F3PN-164">
          <mxGeometry x="1.3333333333333335" width="1.3333333333333335" height="6" as="geometry" />
        </mxCell>
        <mxCell id="qWXWlK8COrikDWp0F3PN-167" value="" style="ellipse;whiteSpace=wrap;html=1;strokeWidth=1;fillColor=#000000;gradientColor=none;" vertex="1" parent="qWXWlK8COrikDWp0F3PN-164">
          <mxGeometry x="2.666666666666667" width="1.3333333333333335" height="6" as="geometry" />
        </mxCell>
        <mxCell id="qWXWlK8COrikDWp0F3PN-66" value="" style="endArrow=none;html=1;rounded=0;strokeWidth=2;" edge="1" parent="1">
          <mxGeometry width="50" height="50" relative="1" as="geometry">
            <mxPoint x="259.6" y="480" as="sourcePoint" />
            <mxPoint x="260" y="410" as="targetPoint" />
          </mxGeometry>
        </mxCell>
        <mxCell id="qWXWlK8COrikDWp0F3PN-78" value="" style="group" vertex="1" connectable="0" parent="1">
          <mxGeometry x="463" y="273.41" width="4" height="6" as="geometry" />
        </mxCell>
        <mxCell id="qWXWlK8COrikDWp0F3PN-79" value="" style="ellipse;whiteSpace=wrap;html=1;strokeWidth=1;fillColor=#000000;gradientColor=none;" vertex="1" parent="qWXWlK8COrikDWp0F3PN-78">
          <mxGeometry width="1.3333333333333335" height="6" as="geometry" />
        </mxCell>
        <mxCell id="qWXWlK8COrikDWp0F3PN-80" value="" style="ellipse;whiteSpace=wrap;html=1;strokeWidth=1;fillColor=#000000;gradientColor=none;" vertex="1" parent="qWXWlK8COrikDWp0F3PN-78">
          <mxGeometry x="1.3333333333333335" width="1.3333333333333335" height="6" as="geometry" />
        </mxCell>
        <mxCell id="qWXWlK8COrikDWp0F3PN-81" value="" style="ellipse;whiteSpace=wrap;html=1;strokeWidth=1;fillColor=#000000;gradientColor=none;" vertex="1" parent="qWXWlK8COrikDWp0F3PN-78">
          <mxGeometry x="2.666666666666667" width="1.3333333333333335" height="6" as="geometry" />
        </mxCell>
        <mxCell id="qWXWlK8COrikDWp0F3PN-86" value="" style="group" vertex="1" connectable="0" parent="1">
          <mxGeometry x="478" y="273.41" width="4" height="6" as="geometry" />
        </mxCell>
        <mxCell id="qWXWlK8COrikDWp0F3PN-87" value="" style="ellipse;whiteSpace=wrap;html=1;strokeWidth=1;fillColor=#000000;gradientColor=none;" vertex="1" parent="qWXWlK8COrikDWp0F3PN-86">
          <mxGeometry width="1.3333333333333335" height="6" as="geometry" />
        </mxCell>
        <mxCell id="qWXWlK8COrikDWp0F3PN-88" value="" style="ellipse;whiteSpace=wrap;html=1;strokeWidth=1;fillColor=#000000;gradientColor=none;" vertex="1" parent="qWXWlK8COrikDWp0F3PN-86">
          <mxGeometry x="1.3333333333333335" width="1.3333333333333335" height="6" as="geometry" />
        </mxCell>
        <mxCell id="qWXWlK8COrikDWp0F3PN-89" value="" style="ellipse;whiteSpace=wrap;html=1;strokeWidth=1;fillColor=#000000;gradientColor=none;" vertex="1" parent="qWXWlK8COrikDWp0F3PN-86">
          <mxGeometry x="2.666666666666667" width="1.3333333333333335" height="6" as="geometry" />
        </mxCell>
        <mxCell id="qWXWlK8COrikDWp0F3PN-90" value="" style="group" vertex="1" connectable="0" parent="1">
          <mxGeometry x="412" y="273.41" width="4" height="6" as="geometry" />
        </mxCell>
        <mxCell id="qWXWlK8COrikDWp0F3PN-91" value="" style="ellipse;whiteSpace=wrap;html=1;strokeWidth=1;fillColor=#000000;gradientColor=none;" vertex="1" parent="qWXWlK8COrikDWp0F3PN-90">
          <mxGeometry width="1.3333333333333335" height="6" as="geometry" />
        </mxCell>
        <mxCell id="qWXWlK8COrikDWp0F3PN-92" value="" style="ellipse;whiteSpace=wrap;html=1;strokeWidth=1;fillColor=#000000;gradientColor=none;" vertex="1" parent="qWXWlK8COrikDWp0F3PN-90">
          <mxGeometry x="1.3333333333333335" width="1.3333333333333335" height="6" as="geometry" />
        </mxCell>
        <mxCell id="qWXWlK8COrikDWp0F3PN-93" value="" style="ellipse;whiteSpace=wrap;html=1;strokeWidth=1;fillColor=#000000;gradientColor=none;" vertex="1" parent="qWXWlK8COrikDWp0F3PN-90">
          <mxGeometry x="2.666666666666667" width="1.3333333333333335" height="6" as="geometry" />
        </mxCell>
        <mxCell id="qWXWlK8COrikDWp0F3PN-94" value="" style="group" vertex="1" connectable="0" parent="1">
          <mxGeometry x="396" y="273.41" width="4" height="6" as="geometry" />
        </mxCell>
        <mxCell id="qWXWlK8COrikDWp0F3PN-95" value="" style="ellipse;whiteSpace=wrap;html=1;strokeWidth=1;fillColor=#000000;gradientColor=none;" vertex="1" parent="qWXWlK8COrikDWp0F3PN-94">
          <mxGeometry width="1.3333333333333335" height="6" as="geometry" />
        </mxCell>
        <mxCell id="qWXWlK8COrikDWp0F3PN-96" value="" style="ellipse;whiteSpace=wrap;html=1;strokeWidth=1;fillColor=#000000;gradientColor=none;" vertex="1" parent="qWXWlK8COrikDWp0F3PN-94">
          <mxGeometry x="1.3333333333333335" width="1.3333333333333335" height="6" as="geometry" />
        </mxCell>
        <mxCell id="qWXWlK8COrikDWp0F3PN-97" value="" style="ellipse;whiteSpace=wrap;html=1;strokeWidth=1;fillColor=#000000;gradientColor=none;" vertex="1" parent="qWXWlK8COrikDWp0F3PN-94">
          <mxGeometry x="2.666666666666667" width="1.3333333333333335" height="6" as="geometry" />
        </mxCell>
        <mxCell id="qWXWlK8COrikDWp0F3PN-98" value="" style="group" vertex="1" connectable="0" parent="1">
          <mxGeometry x="371" y="339.41" width="4" height="6" as="geometry" />
        </mxCell>
        <mxCell id="qWXWlK8COrikDWp0F3PN-99" value="" style="ellipse;whiteSpace=wrap;html=1;strokeWidth=1;fillColor=#000000;gradientColor=none;" vertex="1" parent="qWXWlK8COrikDWp0F3PN-98">
          <mxGeometry width="1.3333333333333335" height="6" as="geometry" />
        </mxCell>
        <mxCell id="qWXWlK8COrikDWp0F3PN-100" value="" style="ellipse;whiteSpace=wrap;html=1;strokeWidth=1;fillColor=#000000;gradientColor=none;" vertex="1" parent="qWXWlK8COrikDWp0F3PN-98">
          <mxGeometry x="1.3333333333333335" width="1.3333333333333335" height="6" as="geometry" />
        </mxCell>
        <mxCell id="qWXWlK8COrikDWp0F3PN-101" value="" style="ellipse;whiteSpace=wrap;html=1;strokeWidth=1;fillColor=#000000;gradientColor=none;" vertex="1" parent="qWXWlK8COrikDWp0F3PN-98">
          <mxGeometry x="2.666666666666667" width="1.3333333333333335" height="6" as="geometry" />
        </mxCell>
        <mxCell id="qWXWlK8COrikDWp0F3PN-102" value="" style="group" vertex="1" connectable="0" parent="1">
          <mxGeometry x="388" y="339.41" width="4" height="6" as="geometry" />
        </mxCell>
        <mxCell id="qWXWlK8COrikDWp0F3PN-103" value="" style="ellipse;whiteSpace=wrap;html=1;strokeWidth=1;fillColor=#000000;gradientColor=none;" vertex="1" parent="qWXWlK8COrikDWp0F3PN-102">
          <mxGeometry width="1.3333333333333335" height="6" as="geometry" />
        </mxCell>
        <mxCell id="qWXWlK8COrikDWp0F3PN-104" value="" style="ellipse;whiteSpace=wrap;html=1;strokeWidth=1;fillColor=#000000;gradientColor=none;" vertex="1" parent="qWXWlK8COrikDWp0F3PN-102">
          <mxGeometry x="1.3333333333333335" width="1.3333333333333335" height="6" as="geometry" />
        </mxCell>
        <mxCell id="qWXWlK8COrikDWp0F3PN-105" value="" style="ellipse;whiteSpace=wrap;html=1;strokeWidth=1;fillColor=#000000;gradientColor=none;" vertex="1" parent="qWXWlK8COrikDWp0F3PN-102">
          <mxGeometry x="2.666666666666667" width="1.3333333333333335" height="6" as="geometry" />
        </mxCell>
        <mxCell id="qWXWlK8COrikDWp0F3PN-106" value="" style="group" vertex="1" connectable="0" parent="1">
          <mxGeometry x="404" y="339.41" width="4" height="6" as="geometry" />
        </mxCell>
        <mxCell id="qWXWlK8COrikDWp0F3PN-107" value="" style="ellipse;whiteSpace=wrap;html=1;strokeWidth=1;fillColor=#000000;gradientColor=none;" vertex="1" parent="qWXWlK8COrikDWp0F3PN-106">
          <mxGeometry width="1.3333333333333335" height="6" as="geometry" />
        </mxCell>
        <mxCell id="qWXWlK8COrikDWp0F3PN-108" value="" style="ellipse;whiteSpace=wrap;html=1;strokeWidth=1;fillColor=#000000;gradientColor=none;" vertex="1" parent="qWXWlK8COrikDWp0F3PN-106">
          <mxGeometry x="1.3333333333333335" width="1.3333333333333335" height="6" as="geometry" />
        </mxCell>
        <mxCell id="qWXWlK8COrikDWp0F3PN-109" value="" style="ellipse;whiteSpace=wrap;html=1;strokeWidth=1;fillColor=#000000;gradientColor=none;" vertex="1" parent="qWXWlK8COrikDWp0F3PN-106">
          <mxGeometry x="2.666666666666667" width="1.3333333333333335" height="6" as="geometry" />
        </mxCell>
        <mxCell id="qWXWlK8COrikDWp0F3PN-117" value="" style="group" vertex="1" connectable="0" parent="1">
          <mxGeometry x="471" y="339.41" width="4" height="6" as="geometry" />
        </mxCell>
        <mxCell id="qWXWlK8COrikDWp0F3PN-118" value="" style="ellipse;whiteSpace=wrap;html=1;strokeWidth=1;fillColor=#000000;gradientColor=none;" vertex="1" parent="qWXWlK8COrikDWp0F3PN-117">
          <mxGeometry width="1.3333333333333335" height="6" as="geometry" />
        </mxCell>
        <mxCell id="qWXWlK8COrikDWp0F3PN-119" value="" style="ellipse;whiteSpace=wrap;html=1;strokeWidth=1;fillColor=#000000;gradientColor=none;" vertex="1" parent="qWXWlK8COrikDWp0F3PN-117">
          <mxGeometry x="1.3333333333333335" width="1.3333333333333335" height="6" as="geometry" />
        </mxCell>
        <mxCell id="qWXWlK8COrikDWp0F3PN-120" value="" style="ellipse;whiteSpace=wrap;html=1;strokeWidth=1;fillColor=#000000;gradientColor=none;" vertex="1" parent="qWXWlK8COrikDWp0F3PN-117">
          <mxGeometry x="2.666666666666667" width="1.3333333333333335" height="6" as="geometry" />
        </mxCell>
        <mxCell id="qWXWlK8COrikDWp0F3PN-125" value="" style="group" vertex="1" connectable="0" parent="1">
          <mxGeometry x="500" y="339.41" width="4" height="6" as="geometry" />
        </mxCell>
        <mxCell id="qWXWlK8COrikDWp0F3PN-126" value="" style="ellipse;whiteSpace=wrap;html=1;strokeWidth=1;fillColor=#000000;gradientColor=none;" vertex="1" parent="qWXWlK8COrikDWp0F3PN-125">
          <mxGeometry width="1.3333333333333335" height="6" as="geometry" />
        </mxCell>
        <mxCell id="qWXWlK8COrikDWp0F3PN-127" value="" style="ellipse;whiteSpace=wrap;html=1;strokeWidth=1;fillColor=#000000;gradientColor=none;" vertex="1" parent="qWXWlK8COrikDWp0F3PN-125">
          <mxGeometry x="1.3333333333333335" width="1.3333333333333335" height="6" as="geometry" />
        </mxCell>
        <mxCell id="qWXWlK8COrikDWp0F3PN-128" value="" style="ellipse;whiteSpace=wrap;html=1;strokeWidth=1;fillColor=#000000;gradientColor=none;" vertex="1" parent="qWXWlK8COrikDWp0F3PN-125">
          <mxGeometry x="2.666666666666667" width="1.3333333333333335" height="6" as="geometry" />
        </mxCell>
        <mxCell id="qWXWlK8COrikDWp0F3PN-138" value="" style="group" vertex="1" connectable="0" parent="1">
          <mxGeometry x="421" y="224.41" width="4" height="6" as="geometry" />
        </mxCell>
        <mxCell id="qWXWlK8COrikDWp0F3PN-139" value="" style="ellipse;whiteSpace=wrap;html=1;strokeWidth=1;fillColor=#000000;gradientColor=none;" vertex="1" parent="qWXWlK8COrikDWp0F3PN-138">
          <mxGeometry width="1.3333333333333335" height="6" as="geometry" />
        </mxCell>
        <mxCell id="qWXWlK8COrikDWp0F3PN-140" value="" style="ellipse;whiteSpace=wrap;html=1;strokeWidth=1;fillColor=#000000;gradientColor=none;" vertex="1" parent="qWXWlK8COrikDWp0F3PN-138">
          <mxGeometry x="1.3333333333333335" width="1.3333333333333335" height="6" as="geometry" />
        </mxCell>
        <mxCell id="qWXWlK8COrikDWp0F3PN-141" value="" style="ellipse;whiteSpace=wrap;html=1;strokeWidth=1;fillColor=#000000;gradientColor=none;" vertex="1" parent="qWXWlK8COrikDWp0F3PN-138">
          <mxGeometry x="2.666666666666667" width="1.3333333333333335" height="6" as="geometry" />
        </mxCell>
        <mxCell id="qWXWlK8COrikDWp0F3PN-147" value="" style="group" vertex="1" connectable="0" parent="1">
          <mxGeometry x="455" y="224.41" width="4" height="6" as="geometry" />
        </mxCell>
        <mxCell id="qWXWlK8COrikDWp0F3PN-148" value="" style="ellipse;whiteSpace=wrap;html=1;strokeWidth=1;fillColor=#000000;gradientColor=none;" vertex="1" parent="qWXWlK8COrikDWp0F3PN-147">
          <mxGeometry width="1.3333333333333335" height="6" as="geometry" />
        </mxCell>
        <mxCell id="qWXWlK8COrikDWp0F3PN-149" value="" style="ellipse;whiteSpace=wrap;html=1;strokeWidth=1;fillColor=#000000;gradientColor=none;" vertex="1" parent="qWXWlK8COrikDWp0F3PN-147">
          <mxGeometry x="1.3333333333333335" width="1.3333333333333335" height="6" as="geometry" />
        </mxCell>
        <mxCell id="qWXWlK8COrikDWp0F3PN-150" value="" style="ellipse;whiteSpace=wrap;html=1;strokeWidth=1;fillColor=#000000;gradientColor=none;" vertex="1" parent="qWXWlK8COrikDWp0F3PN-147">
          <mxGeometry x="2.666666666666667" width="1.3333333333333335" height="6" as="geometry" />
        </mxCell>
        <mxCell id="qWXWlK8COrikDWp0F3PN-151" value="" style="group" vertex="1" connectable="0" parent="1">
          <mxGeometry x="465" y="224.41" width="4" height="6" as="geometry" />
        </mxCell>
        <mxCell id="qWXWlK8COrikDWp0F3PN-152" value="" style="ellipse;whiteSpace=wrap;html=1;strokeWidth=1;fillColor=#000000;gradientColor=none;" vertex="1" parent="qWXWlK8COrikDWp0F3PN-151">
          <mxGeometry width="1.3333333333333335" height="6" as="geometry" />
        </mxCell>
        <mxCell id="qWXWlK8COrikDWp0F3PN-153" value="" style="ellipse;whiteSpace=wrap;html=1;strokeWidth=1;fillColor=#000000;gradientColor=none;" vertex="1" parent="qWXWlK8COrikDWp0F3PN-151">
          <mxGeometry x="1.3333333333333335" width="1.3333333333333335" height="6" as="geometry" />
        </mxCell>
        <mxCell id="qWXWlK8COrikDWp0F3PN-154" value="" style="ellipse;whiteSpace=wrap;html=1;strokeWidth=1;fillColor=#000000;gradientColor=none;" vertex="1" parent="qWXWlK8COrikDWp0F3PN-151">
          <mxGeometry x="2.666666666666667" width="1.3333333333333335" height="6" as="geometry" />
        </mxCell>
        <mxCell id="qWXWlK8COrikDWp0F3PN-208" value="" style="group" vertex="1" connectable="0" parent="1">
          <mxGeometry x="950" y="300" width="172" height="180" as="geometry" />
        </mxCell>
        <mxCell id="qWXWlK8COrikDWp0F3PN-195" value="" style="whiteSpace=wrap;html=1;aspect=fixed;strokeWidth=2;fillColor=#FFFFFF;gradientColor=none;" vertex="1" parent="qWXWlK8COrikDWp0F3PN-208">
          <mxGeometry x="15" y="60" width="120" height="120" as="geometry" />
        </mxCell>
        <mxCell id="qWXWlK8COrikDWp0F3PN-196" value="" style="shape=umlActor;verticalLabelPosition=bottom;verticalAlign=top;html=1;outlineConnect=0;strokeWidth=2;fillColor=#FFFFFF;gradientColor=none;" vertex="1" parent="qWXWlK8COrikDWp0F3PN-208">
          <mxGeometry x="145" y="120" width="27" height="60" as="geometry" />
        </mxCell>
        <mxCell id="qWXWlK8COrikDWp0F3PN-201" value="" style="rounded=0;whiteSpace=wrap;html=1;strokeWidth=2;fillColor=#FFFFFF;gradientColor=none;" vertex="1" parent="qWXWlK8COrikDWp0F3PN-208">
          <mxGeometry x="45" y="130" width="30" height="50" as="geometry" />
        </mxCell>
        <mxCell id="qWXWlK8COrikDWp0F3PN-202" value="" style="rounded=0;whiteSpace=wrap;html=1;strokeWidth=2;fillColor=#FFFFFF;gradientColor=none;" vertex="1" parent="qWXWlK8COrikDWp0F3PN-208">
          <mxGeometry x="30" y="70" width="37" height="40" as="geometry" />
        </mxCell>
        <mxCell id="qWXWlK8COrikDWp0F3PN-203" value="" style="rounded=0;whiteSpace=wrap;html=1;strokeWidth=2;fillColor=#FFFFFF;gradientColor=none;" vertex="1" parent="qWXWlK8COrikDWp0F3PN-208">
          <mxGeometry x="85" y="70" width="37" height="40" as="geometry" />
        </mxCell>
        <mxCell id="qWXWlK8COrikDWp0F3PN-204" value="" style="shape=trapezoid;perimeter=trapezoidPerimeter;whiteSpace=wrap;html=1;fixedSize=1;strokeWidth=2;fillColor=#FFFFFF;gradientColor=none;size=8.296296296296191;" vertex="1" parent="qWXWlK8COrikDWp0F3PN-208">
          <mxGeometry width="150" height="60" as="geometry" />
        </mxCell>
        <mxCell id="qWXWlK8COrikDWp0F3PN-205" value="" style="shape=trapezoid;perimeter=trapezoidPerimeter;whiteSpace=wrap;html=1;fixedSize=1;strokeWidth=2;fillColor=#FFFFFF;gradientColor=none;size=4.777777777777715;" vertex="1" parent="qWXWlK8COrikDWp0F3PN-208">
          <mxGeometry x="12.5" y="5" width="32.5" height="50" as="geometry" />
        </mxCell>
        <mxCell id="qWXWlK8COrikDWp0F3PN-206" value="" style="shape=trapezoid;perimeter=trapezoidPerimeter;whiteSpace=wrap;html=1;fixedSize=1;strokeWidth=2;fillColor=#FFFFFF;gradientColor=none;size=4.777777777777715;" vertex="1" parent="qWXWlK8COrikDWp0F3PN-208">
          <mxGeometry x="52.5" y="5" width="32.5" height="50" as="geometry" />
        </mxCell>
        <mxCell id="qWXWlK8COrikDWp0F3PN-207" value="" style="shape=trapezoid;perimeter=trapezoidPerimeter;whiteSpace=wrap;html=1;fixedSize=1;strokeWidth=2;fillColor=#FFFFFF;gradientColor=none;size=4.777777777777715;" vertex="1" parent="qWXWlK8COrikDWp0F3PN-208">
          <mxGeometry x="95" y="5" width="32.5" height="50" as="geometry" />
        </mxCell>
        <mxCell id="qWXWlK8COrikDWp0F3PN-221" value="" style="group" vertex="1" connectable="0" parent="1">
          <mxGeometry x="585" y="336" width="95" height="136.72" as="geometry" />
        </mxCell>
        <mxCell id="qWXWlK8COrikDWp0F3PN-184" value="" style="endArrow=none;html=1;rounded=0;strokeWidth=2;" edge="1" parent="qWXWlK8COrikDWp0F3PN-221">
          <mxGeometry width="50" height="50" relative="1" as="geometry">
            <mxPoint x="7.125" y="30.010661649419884" as="sourcePoint" />
            <mxPoint x="87.875" y="30.868109125117595" as="targetPoint" />
          </mxGeometry>
        </mxCell>
        <mxCell id="qWXWlK8COrikDWp0F3PN-180" value="" style="rounded=0;whiteSpace=wrap;html=1;strokeWidth=2;fillColor=#FFFFFF;gradientColor=none;" vertex="1" parent="qWXWlK8COrikDWp0F3PN-221">
          <mxGeometry x="15.833333333333334" y="5.1446848541862655" width="63.333333333333336" height="131.57531514581373" as="geometry" />
        </mxCell>
        <mxCell id="qWXWlK8COrikDWp0F3PN-182" value="" style="shape=trapezoid;perimeter=trapezoidPerimeter;whiteSpace=wrap;html=1;fixedSize=1;strokeWidth=2;fillColor=#FFFFFF;gradientColor=none;" vertex="1" parent="qWXWlK8COrikDWp0F3PN-221">
          <mxGeometry width="95" height="15.434054562558797" as="geometry" />
        </mxCell>
        <mxCell id="qWXWlK8COrikDWp0F3PN-183" value="" style="rounded=0;whiteSpace=wrap;html=1;strokeWidth=2;fillColor=#FFFFFF;gradientColor=none;" vertex="1" parent="qWXWlK8COrikDWp0F3PN-221">
          <mxGeometry x="35.625" y="98.13486359360301" width="23.75" height="38.58513640639699" as="geometry" />
        </mxCell>
        <mxCell id="qWXWlK8COrikDWp0F3PN-185" value="" style="group" vertex="1" connectable="0" parent="qWXWlK8COrikDWp0F3PN-221">
          <mxGeometry x="9.5" y="27.43831922232675" width="3.1666666666666665" height="5.1446848541862655" as="geometry" />
        </mxCell>
        <mxCell id="qWXWlK8COrikDWp0F3PN-186" value="" style="ellipse;whiteSpace=wrap;html=1;strokeWidth=1;fillColor=#000000;gradientColor=none;" vertex="1" parent="qWXWlK8COrikDWp0F3PN-185">
          <mxGeometry width="1.0555555555555556" height="5.1446848541862655" as="geometry" />
        </mxCell>
        <mxCell id="qWXWlK8COrikDWp0F3PN-187" value="" style="ellipse;whiteSpace=wrap;html=1;strokeWidth=1;fillColor=#000000;gradientColor=none;" vertex="1" parent="qWXWlK8COrikDWp0F3PN-185">
          <mxGeometry x="1.0555555555555556" width="1.0555555555555556" height="5.1446848541862655" as="geometry" />
        </mxCell>
        <mxCell id="qWXWlK8COrikDWp0F3PN-188" value="" style="ellipse;whiteSpace=wrap;html=1;strokeWidth=1;fillColor=#000000;gradientColor=none;" vertex="1" parent="qWXWlK8COrikDWp0F3PN-185">
          <mxGeometry x="2.111111111111111" width="1.0555555555555556" height="5.1446848541862655" as="geometry" />
        </mxCell>
        <mxCell id="qWXWlK8COrikDWp0F3PN-189" value="" style="group" vertex="1" connectable="0" parent="qWXWlK8COrikDWp0F3PN-221">
          <mxGeometry x="83.125" y="28.29576669802446" width="3.1666666666666665" height="5.1446848541862655" as="geometry" />
        </mxCell>
        <mxCell id="qWXWlK8COrikDWp0F3PN-190" value="" style="ellipse;whiteSpace=wrap;html=1;strokeWidth=1;fillColor=#000000;gradientColor=none;" vertex="1" parent="qWXWlK8COrikDWp0F3PN-189">
          <mxGeometry width="1.0555555555555556" height="5.1446848541862655" as="geometry" />
        </mxCell>
        <mxCell id="qWXWlK8COrikDWp0F3PN-191" value="" style="ellipse;whiteSpace=wrap;html=1;strokeWidth=1;fillColor=#000000;gradientColor=none;" vertex="1" parent="qWXWlK8COrikDWp0F3PN-189">
          <mxGeometry x="1.0555555555555556" width="1.0555555555555556" height="5.1446848541862655" as="geometry" />
        </mxCell>
        <mxCell id="qWXWlK8COrikDWp0F3PN-192" value="" style="ellipse;whiteSpace=wrap;html=1;strokeWidth=1;fillColor=#000000;gradientColor=none;" vertex="1" parent="qWXWlK8COrikDWp0F3PN-189">
          <mxGeometry x="2.111111111111111" width="1.0555555555555556" height="5.1446848541862655" as="geometry" />
        </mxCell>
        <mxCell id="qWXWlK8COrikDWp0F3PN-222" value="" style="group" vertex="1" connectable="0" parent="1">
          <mxGeometry x="770" y="338.63999999999993" width="95" height="136.72" as="geometry" />
        </mxCell>
        <mxCell id="qWXWlK8COrikDWp0F3PN-223" value="" style="endArrow=none;html=1;rounded=0;strokeWidth=2;" edge="1" parent="qWXWlK8COrikDWp0F3PN-222">
          <mxGeometry width="50" height="50" relative="1" as="geometry">
            <mxPoint x="7.125" y="30.010661649419884" as="sourcePoint" />
            <mxPoint x="87.875" y="30.868109125117595" as="targetPoint" />
          </mxGeometry>
        </mxCell>
        <mxCell id="qWXWlK8COrikDWp0F3PN-224" value="" style="rounded=0;whiteSpace=wrap;html=1;strokeWidth=2;fillColor=#FFFFFF;gradientColor=none;" vertex="1" parent="qWXWlK8COrikDWp0F3PN-222">
          <mxGeometry x="15.833333333333334" y="5.1446848541862655" width="63.333333333333336" height="131.57531514581373" as="geometry" />
        </mxCell>
        <mxCell id="qWXWlK8COrikDWp0F3PN-225" value="" style="shape=trapezoid;perimeter=trapezoidPerimeter;whiteSpace=wrap;html=1;fixedSize=1;strokeWidth=2;fillColor=#FFFFFF;gradientColor=none;" vertex="1" parent="qWXWlK8COrikDWp0F3PN-222">
          <mxGeometry width="95" height="15.434054562558797" as="geometry" />
        </mxCell>
        <mxCell id="qWXWlK8COrikDWp0F3PN-226" value="" style="rounded=0;whiteSpace=wrap;html=1;strokeWidth=2;fillColor=#FFFFFF;gradientColor=none;" vertex="1" parent="qWXWlK8COrikDWp0F3PN-222">
          <mxGeometry x="35.625" y="98.13486359360301" width="23.75" height="38.58513640639699" as="geometry" />
        </mxCell>
        <mxCell id="qWXWlK8COrikDWp0F3PN-227" value="" style="group" vertex="1" connectable="0" parent="qWXWlK8COrikDWp0F3PN-222">
          <mxGeometry x="9.5" y="27.43831922232675" width="3.1666666666666665" height="5.1446848541862655" as="geometry" />
        </mxCell>
        <mxCell id="qWXWlK8COrikDWp0F3PN-228" value="" style="ellipse;whiteSpace=wrap;html=1;strokeWidth=1;fillColor=#000000;gradientColor=none;" vertex="1" parent="qWXWlK8COrikDWp0F3PN-227">
          <mxGeometry width="1.0555555555555556" height="5.1446848541862655" as="geometry" />
        </mxCell>
        <mxCell id="qWXWlK8COrikDWp0F3PN-229" value="" style="ellipse;whiteSpace=wrap;html=1;strokeWidth=1;fillColor=#000000;gradientColor=none;" vertex="1" parent="qWXWlK8COrikDWp0F3PN-227">
          <mxGeometry x="1.0555555555555556" width="1.0555555555555556" height="5.1446848541862655" as="geometry" />
        </mxCell>
        <mxCell id="qWXWlK8COrikDWp0F3PN-230" value="" style="ellipse;whiteSpace=wrap;html=1;strokeWidth=1;fillColor=#000000;gradientColor=none;" vertex="1" parent="qWXWlK8COrikDWp0F3PN-227">
          <mxGeometry x="2.111111111111111" width="1.0555555555555556" height="5.1446848541862655" as="geometry" />
        </mxCell>
        <mxCell id="qWXWlK8COrikDWp0F3PN-231" value="" style="group" vertex="1" connectable="0" parent="qWXWlK8COrikDWp0F3PN-222">
          <mxGeometry x="83.125" y="28.29576669802446" width="3.1666666666666665" height="5.1446848541862655" as="geometry" />
        </mxCell>
        <mxCell id="qWXWlK8COrikDWp0F3PN-232" value="" style="ellipse;whiteSpace=wrap;html=1;strokeWidth=1;fillColor=#000000;gradientColor=none;" vertex="1" parent="qWXWlK8COrikDWp0F3PN-231">
          <mxGeometry width="1.0555555555555556" height="5.1446848541862655" as="geometry" />
        </mxCell>
        <mxCell id="qWXWlK8COrikDWp0F3PN-233" value="" style="ellipse;whiteSpace=wrap;html=1;strokeWidth=1;fillColor=#000000;gradientColor=none;" vertex="1" parent="qWXWlK8COrikDWp0F3PN-231">
          <mxGeometry x="1.0555555555555556" width="1.0555555555555556" height="5.1446848541862655" as="geometry" />
        </mxCell>
        <mxCell id="qWXWlK8COrikDWp0F3PN-234" value="" style="ellipse;whiteSpace=wrap;html=1;strokeWidth=1;fillColor=#000000;gradientColor=none;" vertex="1" parent="qWXWlK8COrikDWp0F3PN-231">
          <mxGeometry x="2.111111111111111" width="1.0555555555555556" height="5.1446848541862655" as="geometry" />
        </mxCell>
        <mxCell id="qWXWlK8COrikDWp0F3PN-235" value="" style="curved=1;endArrow=none;html=1;rounded=0;strokeWidth=1;exitX=1.026;exitY=0.709;exitDx=0;exitDy=0;exitPerimeter=0;endFill=0;fillColor=#fa6800;strokeColor=#C73500;" edge="1" parent="1" source="qWXWlK8COrikDWp0F3PN-16">
          <mxGeometry width="50" height="50" relative="1" as="geometry">
            <mxPoint x="540" y="380" as="sourcePoint" />
            <mxPoint x="258" y="408" as="targetPoint" />
            <Array as="points">
              <mxPoint x="240" y="424" />
              <mxPoint x="250" y="407" />
            </Array>
          </mxGeometry>
        </mxCell>
        <mxCell id="qWXWlK8COrikDWp0F3PN-236" value="" style="curved=1;endArrow=none;html=1;rounded=0;strokeWidth=1;endFill=0;fillColor=#fa6800;strokeColor=#C73500;" edge="1" parent="1">
          <mxGeometry width="50" height="50" relative="1" as="geometry">
            <mxPoint x="220" y="424" as="sourcePoint" />
            <mxPoint x="258" y="410" as="targetPoint" />
            <Array as="points">
              <mxPoint x="242" y="424" />
              <mxPoint x="252" y="409" />
            </Array>
          </mxGeometry>
        </mxCell>
        <mxCell id="qWXWlK8COrikDWp0F3PN-237" value="" style="curved=1;endArrow=none;html=1;rounded=0;strokeWidth=1;endFill=0;fillColor=#fa6800;strokeColor=#C73500;" edge="1" parent="1">
          <mxGeometry width="50" height="50" relative="1" as="geometry">
            <mxPoint x="220" y="423" as="sourcePoint" />
            <mxPoint x="259" y="407" as="targetPoint" />
            <Array as="points">
              <mxPoint x="241" y="422" />
              <mxPoint x="246" y="407" />
            </Array>
          </mxGeometry>
        </mxCell>
        <mxCell id="qWXWlK8COrikDWp0F3PN-238" value="" style="curved=1;endArrow=none;html=1;rounded=0;strokeWidth=2;endFill=0;entryX=0;entryY=0.5;entryDx=0;entryDy=0;fillColor=#fa6800;strokeColor=#C73500;" edge="1" parent="1" target="qWXWlK8COrikDWp0F3PN-100">
          <mxGeometry width="50" height="50" relative="1" as="geometry">
            <mxPoint x="262" y="407" as="sourcePoint" />
            <mxPoint x="372" y="345" as="targetPoint" />
            <Array as="points">
              <mxPoint x="320" y="407" />
              <mxPoint x="373" y="369" />
            </Array>
          </mxGeometry>
        </mxCell>
        <mxCell id="qWXWlK8COrikDWp0F3PN-239" value="" style="curved=1;endArrow=none;html=1;rounded=0;strokeWidth=2;endFill=0;fillColor=#fa6800;strokeColor=#C73500;" edge="1" parent="1">
          <mxGeometry width="50" height="50" relative="1" as="geometry">
            <mxPoint x="261" y="408" as="sourcePoint" />
            <mxPoint x="391" y="343" as="targetPoint" />
            <Array as="points">
              <mxPoint x="330" y="410" />
              <mxPoint x="382" y="382" />
            </Array>
          </mxGeometry>
        </mxCell>
        <mxCell id="qWXWlK8COrikDWp0F3PN-240" value="" style="curved=1;endArrow=none;html=1;rounded=0;strokeWidth=2;endFill=0;fillColor=#fa6800;strokeColor=#C73500;" edge="1" parent="1">
          <mxGeometry width="50" height="50" relative="1" as="geometry">
            <mxPoint x="261" y="410" as="sourcePoint" />
            <mxPoint x="406" y="342" as="targetPoint" />
            <Array as="points">
              <mxPoint x="340" y="413" />
              <mxPoint x="391" y="391" />
            </Array>
          </mxGeometry>
        </mxCell>
        <mxCell id="qWXWlK8COrikDWp0F3PN-67" value="" style="rounded=0;whiteSpace=wrap;html=1;strokeWidth=1;fillColor=default;gradientColor=none;" vertex="1" parent="1">
          <mxGeometry x="258" y="402" width="4" height="10" as="geometry" />
        </mxCell>
      </root>
    </mxGraphModel>
  </diagram>
</mxfile>
